<svg width="1793" height="383" viewBox="0 0 1793 383" fill="none" xmlns="http://www.w3.org/2000/svg">
<g clip-path="url(#clip0_245_824)">
<path d="M259.17 307.98C259.17 307.98 263.37 362.82 237.17 373.74C237.17 373.74 207.95 380.56 189.99 369.34L1.40039 214.42L259.17 307.98Z" fill="url(#paint0_linear_245_824)"/>
<path d="M235.77 373.73C235.77 373.73 258.61 365.44 257.82 314.73L254.96 66.3801L253.56 45.0301C253.56 45.0301 250.66 8.61008 228.78 0.580078L323.26 31.9801C328.949 34.1119 333.977 37.7033 337.839 42.3935C341.701 47.0837 344.26 52.7075 345.26 58.7001V295.41C345.26 295.41 344.48 336.87 330.26 342.41L235.77 373.73Z" fill="url(#paint1_linear_245_824)"/>
<path d="M228.68 0.619824C228.68 0.619824 254.4 7.32982 254.4 58.7598L0 197.29L195.52 9.28983C195.52 9.28983 207.07 -2.85018 228.68 0.619824Z" fill="url(#paint2_linear_245_824)"/>
<path d="M414.756 283.18V39.9359H441.408V283.18H414.756ZM442.42 153.967L508.545 39.9359H538.57L470.422 152.28L543.968 283.18H512.93L442.42 153.967ZM541.446 283.18L599.811 39.9359H635.91L694.275 283.18H666.273L649.404 214.019H585.979L569.785 283.18H541.446ZM612.968 91.5535L590.027 189.391H645.693L622.752 91.5535L620.728 79.7456L617.692 63.2144L615.33 79.7456L612.968 91.5535ZM665.59 65.2387V39.9359H797.839V65.2387H744.872V283.18H718.22V65.2387H665.59ZM809.123 265.974V57.1418L825.991 39.9359H920.792L937.661 57.1418V265.974L920.455 283.18H826.666L809.123 265.974ZM835.775 63.5518V259.564H911.346V63.5518H835.775ZM966.606 283.18V39.9359H1003.72L1056.01 226.164L1057.7 239.996L1058.37 246.069L1059.05 252.142L1059.38 246.069L1060.39 239.996C1061.29 231.45 1061.97 226.839 1062.42 226.164L1114.71 39.9359H1151.82V283.18H1126.86V104.036L1127.87 86.493L1128.54 68.9497C1127.64 74.3477 1126.86 79.6331 1126.18 84.8061C1124.83 92.2283 1123.26 98.6383 1121.46 104.036L1071.19 283.18H1046.9L996.295 104.036C994.045 95.7144 991.909 84.0189 989.885 68.9497V77.7214L990.222 86.493L991.234 104.036V283.18H966.606ZM1165.78 283.18L1224.14 39.9359H1260.24L1318.61 283.18H1290.61L1273.74 214.019H1210.31L1194.12 283.18H1165.78ZM1237.3 91.5535L1214.36 189.391H1270.03L1247.08 91.5535L1245.06 79.7456L1242.02 63.2144L1239.66 79.7456L1237.3 91.5535ZM1332.64 283.18V39.9359H1437.22L1454.43 58.1539V140.135L1438.24 155.991L1454.43 170.835V283.18H1427.78V167.124H1358.95V283.18H1332.64ZM1359.29 62.8771V144.521H1427.78V62.8771H1359.29ZM1468.23 283.18L1526.59 39.9359H1562.69L1621.05 283.18H1593.05L1576.18 214.019H1512.76L1496.56 283.18H1468.23ZM1539.75 91.5535L1516.81 189.391H1572.47L1549.53 91.5535L1547.51 79.7456L1544.47 63.2144L1542.11 79.7456L1539.75 91.5535ZM1635.09 283.18V39.9359H1667.14L1745.41 223.465L1749.79 236.96L1752.15 244.045L1753.5 249.78L1752.15 236.285L1750.8 222.116V39.9359H1775.77V283.18H1744.39L1664.77 96.2767L1664.44 95.2646L1661.06 84.1314L1658.7 76.3719L1657.35 71.3113L1658.7 84.4687L1660.05 97.6262V283.18H1635.09Z" fill="#0F68B1"/>
</g>
<defs>
<linearGradient id="paint0_linear_245_824" x1="24.0304" y1="309.2" x2="264.77" y2="271.15" gradientUnits="userSpaceOnUse">
<stop stop-color="#1878BB"/>
<stop offset="0.29" stop-color="#1B6AB2"/>
<stop offset="0.51" stop-color="#237ABD"/>
<stop offset="0.77" stop-color="#325FAB"/>
<stop offset="0.97" stop-color="#316FB6"/>
</linearGradient>
<linearGradient id="paint1_linear_245_824" x1="284.04" y1="333.39" x2="289.39" y2="2.64006" gradientUnits="userSpaceOnUse">
<stop stop-color="#325FAB"/>
<stop offset="0.2" stop-color="#1B6AB2"/>
<stop offset="0.56" stop-color="#237ABD"/>
<stop offset="0.85" stop-color="#4796D1"/>
<stop offset="1" stop-color="#325FAB"/>
</linearGradient>
<linearGradient id="paint2_linear_245_824" x1="-4.03" y1="116.48" x2="359.43" y2="59.0298" gradientUnits="userSpaceOnUse">
<stop stop-color="#3587C8"/>
<stop offset="0.2" stop-color="#1B6AB2"/>
<stop offset="0.44" stop-color="#237ABD"/>
<stop offset="0.64" stop-color="#325FAB"/>
<stop offset="0.9" stop-color="#316FB6"/>
</linearGradient>
<clipPath id="clip0_245_824">
<rect width="1792.91" height="382.16" fill="white"/>
</clipPath>
</defs>
</svg>
